{"title":"Circle.of.Lies.2012.WEBRip XViD juggs","uid":8249547,"size":752696115,"categoryP":"video","categoryS":"movies","magnet":"?xt=urn:btih:baa77230ed48624365a596a3ca60ab958d9915eb&amp;dn=Circle.of.Lies.2012.WEBRip+XViD+juggs&amp;tr=udp%3A%2F%2Ftracker.openbittorrent.com%3A80&amp;tr=udp%3A%2F%2Fopen.demonii.com%3A1337&amp;tr=udp%3A%2F%2Ftracker.coppersurfer.tk%3A6969&amp;tr=udp%3A%2F%2Fexodus.desync.com%3A6969","seeders":1,"leechers":0,"uploader":"juggs99","files":3,"time":1363136804,"description":" &lt;a href=&quot;http://www.imdb.com/title/tt1852097/&quot; rel=&quot;nofollow&quot; target=&quot;_NEW&quot;&gt;http://www.imdb.com/title/tt1852097/&lt;/a&gt;\n\nFormat : AVI\nFormat/Info : Audio Video Interleave\nFile size : 700 MiB\nDuration : 1h 21mn\nOverall bit rate : 1 205 Kbps\nWriting library : VirtualDub build 32842/release\n\nVideo\nID : 0\nFormat : MPEG-4 Visual\nFormat profile : Advanced Simple@L5\nFormat settings, BVOP : 4\nFormat settings, QPel : No\nFormat settings, GMC : No warppoints\nFormat settings, Matrix : Default (H.263)\nMuxing mode : Packed bitstream\nCodec ID : XVID\nCodec ID/Hint : XviD\nDuration : 1h 21mn\nBit rate : 1 068 Kbps\nWidth : 640 pixels\nHeight : 352 pixels\nDisplay aspect ratio : 16:9\nFrame rate : 23.976 fps\nColor space : YUV\nChroma subsampling : 4:2:0\nBit depth : 8 bits\nScan type : Progressive\nCompression mode : Lossy\nBits/(Pixel*Frame) : 0.198\nStream size : 620 MiB (89%)\nWriting library : XviD 64\n\nAudio\nID : 1\nFormat : MPEG Audio\nFormat version : Version 1\nFormat profile : Layer 3\nCodec ID : 55\nCodec ID/Hint : MP3\nDuration : 1h 21mn\nBit rate mode : Constant\nBit rate : 128 Kbps\nChannel(s) : 2 channels\nSampling rate : 44.1 KHz\nCompression mode : Lossy\nStream size : 74.3 MiB (11%)\nAlignment : Split accross interleaves\nInterleave, duration : 42 ms (1.00 video frame)\nInterleave, preload duration : 500 ms\nWriting library : LAME3.99r\nEncoding settings : -m s -V 4 -q 3 -lowpass 17 -b 128\n\n\nPlot\nOnce the most popular girl at Short Beach High, Denise Dixon finds her life turned upside-down after one night of terror. Rumours and violent backstabbing run rife. Life in Short Beach will never be the same.\n\n &lt;a href=&quot;\nhttp://www.shotpix.com/images/89655078032378436600.png&quot; rel=&quot;nofollow&quot; target=&quot;_NEW&quot;&gt;\nhttp://www.shotpix.com/images/89655078032378436600.png&lt;/a&gt; &lt;a href=&quot;\nhttp://www.shotpix.com/images/00397553129465206145.png&quot; rel=&quot;nofollow&quot; target=&quot;_NEW&quot;&gt;\nhttp://www.shotpix.com/images/00397553129465206145.png&lt;/a&gt; &lt;a href=&quot;\nhttp://www.shotpix.com/images/02804037376037719115.png&quot; rel=&quot;nofollow&quot; target=&quot;_NEW&quot;&gt;\nhttp://www.shotpix.com/images/02804037376037719115.png&lt;/a&gt; &lt;a href=&quot;\nhttp://www.shotpix.com/images/50578358977999028355.png&quot; rel=&quot;nofollow&quot; target=&quot;_NEW&quot;&gt;\nhttp://www.shotpix.com/images/50578358977999028355.png&lt;/a&gt;","torrent":{"xt":"urn:btih:baa77230ed48624365a596a3ca60ab958d9915eb","amp;dn":"Circle.of.Lies.2012.WEBRip+XViD+juggs","amp;tr":["udp%3A%2F%2Ftracker.openbittorrent.com%3A80","udp%3A%2F%2Fopen.demonii.com%3A1337","udp%3A%2F%2Ftracker.coppersurfer.tk%3A6969","udp%3A%2F%2Fexodus.desync.com%3A6969"],"infoHash":"baa77230ed48624365a596a3ca60ab958d9915eb","infoHashBuffer":{"type":"Buffer","data":[186,167,114,48,237,72,98,67,101,165,150,163,202,96,171,149,141,153,21,235]},"announce":[],"urlList":[]}}